<?xml version="1.0" encoding="UTF-8" ?>
<!DOCTYPE svg PUBLIC "-//W3C//DTD SVG 1.1//EN" "http://www.w3.org/Graphics/SVG/1.1/DTD/svg11.dtd">
<svg width="800pt" height="800pt" viewBox="0 0 800 800" version="1.1" xmlns="http://www.w3.org/2000/svg">
<path fill="#fefefe" d=" M 0.00 0.00 L 800.00 0.00 L 800.00 800.00 L 0.00 800.00 L 0.00 0.00 Z" />
<path fill="#ed6a02" d=" M 367.63 8.77 C 377.70 2.89 390.73 2.59 401.09 7.94 C 406.24 10.47 410.36 14.57 414.28 18.68 C 444.37 49.27 474.94 79.39 505.21 109.81 C 588.86 193.48 672.54 277.11 756.17 360.79 C 769.16 373.54 769.28 396.52 756.37 409.37 C 641.09 524.75 525.70 640.03 410.40 755.39 C 404.52 761.43 396.46 765.34 388.03 765.92 C 377.87 766.81 367.45 762.99 360.31 755.71 C 272.82 668.21 185.32 580.72 97.83 493.22 C 71.72 467.26 45.90 441.00 19.62 415.22 C 13.69 409.72 7.92 403.51 5.69 395.53 C 1.83 383.37 5.23 369.27 14.36 360.33 C 128.01 246.66 241.69 133.00 355.36 19.34 C 359.18 15.53 362.84 11.40 367.63 8.77 Z" />
<path fill="#0d0600" d=" M 378.55 13.73 C 387.52 11.43 397.58 14.16 404.01 20.85 C 517.70 134.54 631.39 248.23 745.07 361.92 C 748.75 365.58 752.77 369.17 754.86 374.04 C 759.38 383.77 757.30 396.14 749.63 403.69 C 634.31 519.04 518.98 634.38 403.62 749.70 C 393.85 759.73 376.09 759.67 366.41 749.54 C 251.04 634.21 135.68 518.87 20.36 403.49 C 10.45 393.74 10.53 376.13 20.55 366.49 C 135.35 251.64 250.21 136.86 364.99 22.01 C 368.66 18.09 373.28 14.98 378.55 13.73 Z" />
<path fill="#cbc5c1" d=" M 414.28 18.68 C 423.61 21.65 430.46 29.04 437.61 35.34 C 480.72 77.90 523.22 121.06 566.12 163.81 C 622.43 220.17 678.79 276.49 735.14 332.80 C 748.67 346.94 763.61 359.78 775.72 375.22 C 780.17 382.66 785.63 390.28 785.56 399.35 C 786.36 408.14 781.11 415.69 776.95 422.94 C 770.36 432.19 762.43 440.41 754.24 448.25 C 676.02 526.37 597.96 604.64 519.70 682.71 C 494.50 707.84 469.54 733.21 444.22 758.21 C 437.50 765.20 430.28 771.78 422.39 777.43 C 413.61 782.92 402.85 788.30 392.34 784.62 C 374.39 778.82 361.93 763.88 348.84 751.19 C 244.05 646.29 139.13 541.53 34.33 436.63 C 29.61 431.31 24.67 426.10 21.10 419.90 C 20.16 418.51 19.72 416.88 19.62 415.22 C 45.90 441.00 71.72 467.26 97.83 493.22 C 185.32 580.72 272.82 668.21 360.31 755.71 C 367.45 762.99 377.87 766.81 388.03 765.92 C 396.46 765.34 404.52 761.43 410.40 755.39 C 525.70 640.03 641.09 524.75 756.37 409.37 C 769.28 396.52 769.16 373.54 756.17 360.79 C 672.54 277.11 588.86 193.48 505.21 109.81 C 474.94 79.39 444.37 49.27 414.28 18.68 Z" />
<path fill="#ed6a02" d=" M 380.39 28.38 C 385.14 26.12 390.89 27.85 394.27 31.69 C 509.09 146.53 623.93 261.34 738.74 376.17 C 741.65 378.93 743.42 383.03 742.62 387.07 C 741.95 391.72 737.90 394.63 734.87 397.80 C 622.68 509.98 510.50 622.17 398.32 734.36 C 395.76 736.82 393.49 739.67 390.40 741.51 C 385.75 744.03 379.73 742.66 376.24 738.81 C 262.56 625.14 148.90 511.45 35.22 397.79 C 32.39 394.82 28.74 392.12 27.75 387.93 C 26.59 383.76 28.20 379.23 31.32 376.35 C 144.50 263.19 257.65 150.01 370.83 36.85 C 373.95 33.97 376.53 30.34 380.39 28.38 Z" />
<path fill="#0d0600" d=" M 195.65 293.60 C 201.29 287.44 209.76 284.43 218.01 284.49 C 226.78 284.20 235.79 286.06 243.15 291.01 C 241.59 294.54 240.11 298.10 238.64 301.66 C 230.22 296.78 219.37 294.16 210.15 298.35 C 203.82 301.36 200.99 308.40 199.75 314.89 C 198.06 325.35 197.90 336.24 200.59 346.56 C 202.20 352.90 206.24 359.18 212.76 361.25 C 222.14 364.07 232.05 360.65 240.12 355.76 C 241.59 359.35 242.99 362.98 244.36 366.63 C 234.41 373.34 221.81 375.94 210.06 373.24 C 202.32 371.47 195.44 366.33 191.61 359.36 C 184.99 348.14 184.42 334.60 185.07 321.91 C 186.03 311.80 188.90 301.44 195.65 293.60 Z" />
<path fill="#0d0600" d=" M 280.14 285.28 C 287.79 283.83 296.38 284.19 302.98 288.74 C 309.90 293.35 313.82 301.23 315.79 309.10 C 318.55 320.57 318.74 332.59 316.88 344.22 C 315.60 352.67 312.48 361.21 306.27 367.30 C 295.41 377.49 275.77 376.47 266.59 364.50 C 259.86 355.91 257.86 344.64 257.54 333.99 C 257.21 322.24 257.71 309.89 263.29 299.25 C 266.64 292.51 272.75 287.08 280.14 285.28 Z" />
<path fill="#0d0600" d=" M 523.14 294.05 C 528.77 287.59 537.50 284.44 545.95 284.49 C 554.74 284.18 563.75 286.07 571.14 290.99 C 569.58 294.52 568.10 298.08 566.71 301.68 C 558.87 297.17 549.18 294.62 540.33 297.46 C 536.14 298.73 532.76 301.95 530.82 305.82 C 527.10 312.95 526.86 321.18 526.46 329.04 C 526.83 338.22 527.29 348.29 533.11 355.90 C 539.09 363.42 550.54 363.78 558.69 359.90 C 558.74 353.76 558.73 347.62 558.71 341.49 C 553.70 341.49 548.70 341.49 543.70 341.50 C 543.72 337.65 543.72 333.81 543.73 329.97 C 553.15 329.95 562.57 329.96 572.00 329.97 C 572.00 341.95 572.00 353.92 572.00 365.90 C 564.76 371.11 556.04 374.54 547.02 374.24 C 537.12 374.51 526.84 370.29 521.19 361.92 C 513.09 350.38 512.36 335.61 513.05 322.01 C 514.01 312.08 516.65 301.87 523.14 294.05 Z" />
<path fill="#0d0600" d=" M 334.97 285.97 C 346.69 286.35 359.18 284.29 370.08 289.77 C 380.34 294.76 387.20 305.12 389.39 316.14 C 391.47 326.60 391.29 337.66 387.96 347.85 C 384.29 359.21 374.75 368.77 362.99 371.48 C 353.78 373.42 344.32 372.98 334.97 373.00 C 334.97 343.99 334.91 314.98 334.97 285.97 Z" />
<path fill="#0d0600" d=" M 409.42 286.04 C 413.21 285.94 417.01 285.94 420.80 285.99 C 420.89 314.99 420.98 344.00 421.27 373.00 C 417.32 372.99 413.37 373.02 409.42 372.97 C 409.49 343.99 409.49 315.02 409.42 286.04 Z" />
<path fill="#0d0600" d=" M 443.97 286.00 C 448.52 286.02 453.07 285.95 457.63 286.06 C 465.49 303.55 473.69 320.90 481.62 338.37 C 482.53 340.40 483.55 342.38 484.64 344.33 C 484.84 324.89 484.66 305.44 484.73 286.00 C 488.98 286.00 493.23 285.98 497.49 285.98 C 497.49 314.98 497.50 343.99 497.48 373.00 C 493.05 373.00 488.62 373.00 484.19 373.00 C 475.20 353.25 466.48 333.36 457.11 313.80 C 456.94 333.53 457.09 353.26 457.04 373.00 C 452.68 373.00 448.32 373.00 443.96 373.00 C 443.96 344.00 443.96 315.00 443.97 286.00 Z" />
<path fill="#ed6a02" d=" M 284.55 296.67 C 290.10 295.24 296.42 297.89 299.22 302.92 C 302.06 307.74 303.31 313.38 303.79 318.91 C 304.46 329.43 304.85 340.31 301.63 350.48 C 299.89 356.18 295.37 362.04 288.91 362.16 C 283.59 362.84 278.29 359.88 275.92 355.12 C 270.92 345.59 270.93 334.44 271.18 323.95 C 271.59 317.06 272.53 309.94 275.87 303.78 C 277.66 300.38 280.78 297.64 284.55 296.67 Z" />
<path fill="#ed6a02" d=" M 348.11 298.00 C 353.35 298.03 358.97 297.55 363.68 300.31 C 371.95 304.58 375.75 314.10 376.71 322.90 C 377.34 331.42 377.19 340.45 373.26 348.25 C 370.79 353.38 366.42 357.68 360.99 359.54 C 356.87 361.05 352.44 360.83 348.13 360.91 C 348.10 339.94 348.14 318.97 348.11 298.00 Z" />
<path fill="#0d0600" d=" M 302.34 421.23 C 310.21 419.79 319.09 420.25 325.70 425.25 C 332.78 430.34 336.48 438.81 338.26 447.12 C 340.91 460.07 340.73 473.64 337.57 486.48 C 335.33 494.69 330.82 502.89 323.09 507.04 C 315.08 511.23 305.01 511.32 296.90 507.34 C 290.01 503.88 285.37 497.13 282.90 489.99 C 279.09 479.12 279.13 467.40 279.78 456.04 C 280.56 446.81 282.91 437.28 288.78 429.91 C 292.13 425.56 297.04 422.58 302.34 421.23 Z" />
<path fill="#0d0600" d=" M 519.34 422.21 C 529.25 418.99 539.90 420.76 549.77 423.23 C 548.83 427.18 547.76 431.09 546.85 435.04 C 538.99 432.63 530.07 430.23 522.21 433.93 C 517.49 435.73 514.89 441.57 516.68 446.28 C 518.74 450.82 523.43 453.26 527.67 455.40 C 534.85 458.83 542.76 461.68 547.97 468.04 C 554.04 474.68 554.70 484.69 551.90 492.92 C 548.83 501.77 540.26 507.70 531.34 509.57 C 521.96 511.28 512.01 509.77 503.61 505.23 C 504.53 501.36 505.43 497.49 506.25 493.61 C 514.64 497.40 524.65 500.95 533.52 496.58 C 541.54 492.91 542.96 481.12 536.98 475.02 C 528.65 467.38 516.09 466.14 508.49 457.54 C 503.93 452.68 502.28 445.50 503.76 439.05 C 504.97 430.90 511.83 424.77 519.34 422.21 Z" />
<path fill="#0d0600" d=" M 201.65 422.00 C 206.04 422.01 210.44 421.96 214.84 422.05 C 215.75 434.42 217.36 446.74 218.50 459.10 C 219.50 466.77 219.78 474.54 221.12 482.17 C 224.43 471.02 227.84 459.90 231.11 448.74 C 235.19 448.72 239.27 448.73 243.35 448.70 C 246.97 459.62 249.58 470.88 253.63 481.66 C 256.06 461.79 257.88 441.86 260.06 421.97 C 264.41 421.96 268.76 421.95 273.11 421.97 C 269.21 450.96 265.66 479.99 261.92 509.00 C 258.00 509.00 254.09 509.00 250.18 509.00 C 246.09 494.83 241.70 480.75 237.45 466.63 C 235.49 470.86 234.52 475.44 233.12 479.88 C 230.09 489.56 227.33 499.32 224.28 509.00 C 220.36 509.00 216.45 508.99 212.53 509.01 C 208.77 480.03 205.23 451.01 201.65 422.00 Z" />
<path fill="#0d0600" d=" M 356.95 421.97 C 366.29 421.98 375.63 421.91 384.97 421.98 C 392.16 422.41 399.65 425.01 404.45 430.61 C 409.32 436.28 410.39 444.42 408.67 451.51 C 406.43 459.58 399.47 465.45 391.77 468.15 C 400.73 481.85 409.98 495.34 418.98 509.00 C 413.60 509.00 408.23 508.99 402.85 509.01 C 394.54 496.41 386.44 483.67 378.23 471.00 C 375.50 470.99 372.77 471.00 370.04 471.00 C 370.04 483.67 370.04 496.33 370.03 509.00 C 365.67 509.00 361.32 509.00 356.96 509.00 C 356.95 479.99 356.94 450.98 356.95 421.97 Z" />
<path fill="#0d0600" d=" M 429.51 421.98 C 433.83 421.95 438.16 421.95 442.48 421.97 C 442.55 434.34 442.39 446.70 442.56 459.07 C 454.12 446.78 465.48 434.31 477.00 422.00 C 482.28 421.96 487.56 421.95 492.84 421.97 C 482.18 433.28 471.82 444.86 461.10 456.11 C 460.29 456.98 459.53 457.90 458.92 458.92 C 459.53 460.81 460.90 462.32 461.99 463.95 C 472.53 478.94 482.96 494.00 493.47 509.00 C 488.00 509.00 482.53 508.99 477.05 509.00 C 467.83 495.62 458.71 482.15 449.31 468.89 C 447.01 471.38 444.76 473.93 442.48 476.44 C 442.49 487.30 442.50 498.15 442.48 509.00 C 438.16 509.00 433.84 509.00 429.52 509.00 C 429.50 479.99 429.50 450.98 429.51 421.98 Z" />
<path fill="#ed6a02" d=" M 306.57 432.66 C 311.83 431.34 317.88 433.62 320.78 438.25 C 323.47 442.29 324.66 447.12 325.46 451.85 C 326.51 461.21 326.58 470.69 325.26 480.03 C 324.14 486.16 322.07 492.79 316.62 496.44 C 310.79 499.88 302.20 498.36 298.67 492.32 C 293.17 483.28 293.00 472.23 293.12 461.97 C 293.37 454.42 294.23 446.58 297.85 439.82 C 299.64 436.39 302.78 433.63 306.57 432.66 Z" />
<path fill="#ed6a02" d=" M 370.12 434.00 C 376.64 434.41 383.55 432.90 389.77 435.42 C 397.77 438.76 397.99 451.26 391.06 455.85 C 385.00 460.31 377.11 458.54 370.13 458.88 C 370.10 450.58 370.12 442.29 370.12 434.00 Z" />
</svg>
